<?xml version="1.0" encoding="UTF-8"?>
<svg version="1.1" xmlns="http://www.w3.org/2000/svg" width="32" height="32">
<path d="M0 0 C0.66 0 1.32 0 2 0 C3.4783226 2.95664519 3.06032783 5.74229737 3 9 C5.31 9 7.62 9 10 9 C12.11161731 18.41002278 12.11161731 18.41002278 13 23 C14.32 23 15.64 23 17 23 C17 25.64 17 28.28 17 31 C15.68 31.33 14.36 31.66 13 32 C13 31.34 13 30.68 13 30 C12.236875 30.33 11.47375 30.66 10.6875 31 C3.77232871 32.87530069 -3.35470681 32.8736403 -10 30 C-10.66 30.66 -11.32 31.32 -12 32 C-12.99 31.34 -13.98 30.68 -15 30 C-15.1875 26.375 -15.1875 26.375 -15 23 C-13.68 22.67 -12.36 22.34 -11 22 C-10.01 17.71 -9.02 13.42 -8 9 C-5.69 9 -3.38 9 -1 9 C-0.67 6.03 -0.34 3.06 0 0 Z " fill="#888583" transform="translate(15,0)"/>
<path d="M0 0 C0.66 0 1.32 0 2 0 C3.4783226 2.95664519 3.06032783 5.74229737 3 9 C5.31 9 7.62 9 10 9 C11.26305335 14.07476794 12.27036084 18.72796354 12 24 C6.20377279 26.32637691 2.13909603 27.43680971 -4 26 C-3.67 25.01 -3.34 24.02 -3 23 C0.96 23 4.92 23 9 23 C8.67 20.03 8.34 17.06 8 14 C3.71 14 -0.58 14 -5 14 C-5.66 17.3 -6.32 20.6 -7 24 C-7.66 24 -8.32 24 -9 24 C-8.67 19.05 -8.34 14.1 -8 9 C-5.69 9 -3.38 9 -1 9 C-0.67 6.03 -0.34 3.06 0 0 Z " fill="#B3B2B2" transform="translate(15,0)"/>
<path d="M0 0 C3.00390625 -0.328125 3.00390625 -0.328125 6.5625 -0.25 C8.32787109 -0.22679687 8.32787109 -0.22679687 10.12890625 -0.203125 C13 0 13 0 14 1 C14.07179964 2.51928038 14.08392007 4.04167482 14.0625 5.5625 C14.05347656 6.38878906 14.04445313 7.21507812 14.03515625 8.06640625 C14.02355469 8.70449219 14.01195313 9.34257812 14 10 C12.77023438 10.09087891 12.77023438 10.09087891 11.515625 10.18359375 C9.89914063 10.30927734 9.89914063 10.30927734 8.25 10.4375 C7.18265625 10.51871094 6.1153125 10.59992187 5.015625 10.68359375 C2.56320038 10.94090773 0.36078709 11.31812218 -2 12 C-2.05422947 10.5629191 -2.09289723 9.12524538 -2.125 7.6875 C-2.14820313 6.88699219 -2.17140625 6.08648437 -2.1953125 5.26171875 C-2 3 -2 3 0 0 Z " fill="#D4A196" transform="translate(10,13)"/>
<path d="M0 0 C0.99 0.33 1.98 0.66 3 1 C3 3.64 3 6.28 3 9 C1.68 9.33 0.36 9.66 -1 10 C-1 9.34 -1 8.68 -1 8 C-2.2684375 8.495 -2.2684375 8.495 -3.5625 9 C-7.20989216 10.06105954 -10.22274664 10.15109013 -14 10 C-14.33 8.68 -14.66 7.36 -15 6 C-11.94265743 4.98088581 -8.88755759 3.96472395 -5.8125 3 C-2.84774286 2.07464653 -2.84774286 2.07464653 0 0 Z " fill="#AEAAA7" transform="translate(29,22)"/>
<path d="M0 0 C6.7627065 0 8.46223757 0.28762657 14 3 C14 3.33 14 3.66 14 4 C10.37 4.33 6.74 4.66 3 5 C2.34 8.3 1.68 11.6 1 15 C0.34 15 -0.32 15 -1 15 C-0.67 10.05 -0.34 5.1 0 0 Z " fill="#DBD5D4" transform="translate(7,9)"/>
<path d="M0 0 C0.66 0 1.32 0 2 0 C2 1.65 2 3.3 2 5 C-3.67989374 7.49118146 -6.94474232 8.38766322 -13 7 C-12.67 6.01 -12.34 5.02 -12 4 C-8.04 4 -4.08 4 0 4 C0 2.68 0 1.36 0 0 Z " fill="#E6E0DF" transform="translate(24,19)"/>
<path d="M0 0 C0.598125 0.165 1.19625 0.33 1.8125 0.5 C4.11344336 1.1114124 4.11344336 1.1114124 7 1 C6.67 1.66 6.34 2.32 6 3 C6.66 3 7.32 3 8 3 C8 3.66 8 4.32 8 5 C7.34 5 6.68 5 6 5 C6.33 5.99 6.66 6.98 7 8 C6.21625 7.814375 5.4325 7.62875 4.625 7.4375 C2.02910225 6.74037734 2.02910225 6.74037734 0 8 C0 7.34 0 6.68 0 6 C-0.66 5.67 -1.32 5.34 -2 5 C-2 4.34 -2 3.68 -2 3 C-1.34 2.67 -0.68 2.34 0 2 C0 1.34 0 0.68 0 0 Z " fill="#A4433E" transform="translate(13,14)"/>
<path d="M0 0 C0.66 0.33 1.32 0.66 2 1 C2 2.32 2 3.64 2 5 C2.99 5.33 3.98 5.66 5 6 C3.6875 8.5 3.6875 8.5 2 11 C1.01 11 0.02 11 -1 11 C-1.0270043 9.54176788 -1.04639787 8.08339325 -1.0625 6.625 C-1.07410156 5.81289063 -1.08570313 5.00078125 -1.09765625 4.1640625 C-1 2 -1 2 0 0 Z " fill="#D6ADA3" transform="translate(9,14)"/>
<path d="M0 0 C0.66 0 1.32 0 2 0 C3.46972992 2.93945984 3 5.74955436 3 9 C3.33 9.66 3.66 10.32 4 11 C2.68 11 1.36 11 0 11 C-1.125 3.375 -1.125 3.375 0 0 Z " fill="#E0B068" transform="translate(15,0)"/>
<path d="M0 0 C0.99 0.33 1.98 0.66 3 1 C2.67 2.32 2.34 3.64 2 5 C-0.31 5.33 -2.62 5.66 -5 6 C-5.66 5.01 -6.32 4.02 -7 3 C-5.5459375 2.5359375 -5.5459375 2.5359375 -4.0625 2.0625 C-1.15934208 1.30476658 -1.15934208 1.30476658 0 0 Z " fill="#747270" transform="translate(24,24)"/>
<path d="M0 0 C0.33 0.66 0.66 1.32 1 2 C1.99 2.33 2.98 2.66 4 3 C3.67 4.65 3.34 6.3 3 8 C1.68 7.34 0.36 6.68 -1 6 C-1.042721 4.33388095 -1.04063832 2.66617115 -1 1 C-0.67 0.67 -0.34 0.34 0 0 Z " fill="#BCB9B6" transform="translate(1,24)"/>
<path d="M0 0 C2.31 0 4.62 0 7 0 C6.01 0.495 6.01 0.495 5 1 C5 1.99 5 2.98 5 4 C3.68 4 2.36 4 1 4 C0.67 2.68 0.34 1.36 0 0 Z " fill="#BAB8B5" transform="translate(14,28)"/>
<path d="M0 0 C0.99 0.33 1.98 0.66 3 1 C2 4 2 4 -0.0625 5.1875 C-0.701875 5.455625 -1.34125 5.72375 -2 6 C-1.125 1.125 -1.125 1.125 0 0 Z " fill="#928E8C" transform="translate(29,22)"/>
<path d="M0 0 C1.32 0.66 2.64 1.32 4 2 C3.67 2.99 3.34 3.98 3 5 C1.35 5 -0.3 5 -2 5 C-2 4.34 -2 3.68 -2 3 C-1.34 2.67 -0.68 2.34 0 2 C0 1.34 0 0.68 0 0 Z " fill="#A94C47" transform="translate(13,14)"/>
</svg>
